<svg xmlns="http://www.w3.org/2000/svg" xmlns:xlink="http://www.w3.org/1999/xlink" width="500" zoomAndPan="magnify" viewBox="0 0 375 374.999991" height="500" preserveAspectRatio="xMidYMid meet" version="1.0"><defs><g/></defs><rect x="-37.5" width="450" fill="#ffffff" y="-37.499999" height="449.999989" fill-opacity="1"/><rect x="-37.5" width="450" fill="#3d393b" y="-37.499999" height="449.999989" fill-opacity="1"/><g fill="#f5a2cb" fill-opacity="1"><g transform="translate(102.41257, 245.045182)"><g><path d="M 9.671875 0 L 9.671875 -121.34375 L 38.21875 -121.34375 L 38.21875 -0.234375 Z M 60.328125 -0.234375 C 60.328125 -0.234375 62.164062 -0.847656 65.84375 -2.078125 C 69.53125 -3.304688 73.523438 -6.296875 77.828125 -11.046875 C 82.273438 -15.648438 85.1875 -19.679688 86.5625 -23.140625 C 87.945312 -26.597656 88.640625 -28.328125 88.640625 -28.328125 L 88.640625 -0.234375 Z M 60.328125 -0.234375 "/></g></g></g><g fill="#f5a2cb" fill-opacity="1"><g transform="translate(177.703397, 245.045182)"><g><path d="M 9.671875 0 L 9.671875 -121.34375 L 38.21875 -121.34375 L 38.21875 0 Z M 53.1875 -48.8125 C 53.1875 -48.8125 53.953125 -49.117188 55.484375 -49.734375 C 57.023438 -50.347656 58.789062 -51.804688 60.78125 -54.109375 C 62.78125 -56.410156 64.546875 -60.015625 66.078125 -64.921875 C 67.617188 -69.835938 68.390625 -76.59375 68.390625 -85.1875 C 68.390625 -93.9375 67.390625 -100.765625 65.390625 -105.671875 C 63.390625 -110.585938 61.125 -114.160156 58.59375 -116.390625 C 56.0625 -118.617188 53.796875 -120 51.796875 -120.53125 C 49.804688 -121.070312 48.8125 -121.34375 48.8125 -121.34375 C 48.8125 -121.34375 50.269531 -121.226562 53.1875 -121 C 56.101562 -120.769531 59.75 -120.113281 64.125 -119.03125 C 68.5 -117.957031 72.832031 -116.113281 77.125 -113.5 C 81.425781 -110.894531 85.035156 -107.289062 87.953125 -102.6875 C 90.867188 -98.082031 92.328125 -92.175781 92.328125 -84.96875 C 92.328125 -77.132812 91.019531 -70.835938 88.40625 -66.078125 C 85.800781 -61.316406 82.539062 -57.707031 78.625 -55.25 C 74.71875 -52.800781 70.804688 -51.113281 66.890625 -50.1875 C 62.972656 -49.269531 59.707031 -48.8125 57.09375 -48.8125 C 54.488281 -48.8125 53.1875 -48.8125 53.1875 -48.8125 Z M 53.1875 -48.8125 "/></g></g></g></svg>